<svg width="64" height="64" viewBox="0 0 64 64" fill="none" xmlns="http://www.w3.org/2000/svg"><path d="M50.6216 40.27V48.296C50.62 48.7893 50.4233 49.262 50.0744 49.6109C49.7256 49.9597 49.2529 50.1564 48.7595 50.158H15.2395C14.7657 50.1575 14.3103 49.9746 13.9677 49.6473C13.6251 49.3199 13.4216 48.8733 13.3995 48.4C13.3848 48.3646 13.3787 48.3262 13.3815 48.288V40.27C13.3797 40.0249 13.4264 39.7819 13.519 39.555C13.6115 39.328 13.7481 39.1217 13.9209 38.9478C14.0936 38.774 14.2991 38.6361 14.5254 38.542C14.7518 38.448 14.9945 38.3997 15.2395 38.4H48.7775C49.0216 38.401 49.2631 38.4503 49.488 38.545C49.7129 38.6396 49.917 38.7778 50.0883 38.9516C50.2597 39.1254 50.395 39.3313 50.4865 39.5576C50.578 39.7838 50.6239 40.0259 50.6216 40.27Z" fill="#F29836"></path> <path d="M48.7995 38.52V46.546C48.8003 46.7907 48.7527 47.0332 48.6594 47.2595C48.5661 47.4858 48.429 47.6913 48.256 47.8644C48.0829 48.0375 47.8773 48.1746 47.651 48.2679C47.4248 48.3612 47.1823 48.4088 46.9375 48.408H13.3995C13.3848 48.3726 13.3787 48.3342 13.3815 48.296V40.27C13.3797 40.0249 13.4264 39.7819 13.519 39.555C13.6115 39.328 13.7481 39.1217 13.9209 38.9478C14.0936 38.774 14.2991 38.6361 14.5254 38.542C14.7518 38.448 14.9945 38.3997 15.2395 38.4H48.7775C48.7949 38.4375 48.8025 38.4788 48.7995 38.52Z" fill="#FFA73B"></path> <path d="M57.9771 17.384L50.5271 40.494C50.4056 40.8672 50.1691 41.1923 49.8516 41.423C49.534 41.6536 49.1516 41.7779 48.7591 41.778H15.2391C14.8467 41.7779 14.4643 41.6536 14.1467 41.423C13.8292 41.1923 13.5927 40.8672 13.4711 40.494L13.1351 39.47L6.02114 17.384C5.89555 17.0072 5.89398 16.6002 6.01664 16.2225C6.13931 15.8448 6.37977 15.5163 6.70275 15.2853C7.02574 15.0542 7.41425 14.9327 7.81133 14.9386C8.2084 14.9445 8.59314 15.0775 8.90914 15.318L20.6771 24.256L30.6951 14.386C30.8656 14.2147 31.0681 14.0788 31.2912 13.9861C31.5143 13.8934 31.7535 13.8456 31.9951 13.8456C32.2367 13.8456 32.476 13.8934 32.6991 13.9861C32.9221 14.0788 33.1247 14.2147 33.2951 14.386L43.3131 24.256L55.0811 15.318C55.2725 15.1708 55.4915 15.0636 55.7252 15.0028C55.9588 14.942 56.2023 14.9288 56.4411 14.964C56.714 14.9952 56.9764 15.0872 57.2089 15.2332C57.4415 15.3793 57.6384 15.5757 57.785 15.8079C57.9316 16.0401 58.0243 16.3022 58.0561 16.575C58.088 16.8478 58.0583 17.1242 57.9691 17.384H57.9771Z" fill="#E8A215"></path> <path d="M56.4491 14.964C56.4461 15.0217 56.4332 15.0785 56.4111 15.132L48.9631 38.24C48.8416 38.6187 48.6029 38.949 48.2816 39.1833C47.9603 39.4177 47.5728 39.544 47.1751 39.544H13.6571C13.4802 39.5483 13.3038 39.5233 13.1351 39.47L6.02114 17.384C5.89555 17.0072 5.89398 16.6002 6.01664 16.2225C6.13931 15.8448 6.37977 15.5163 6.70275 15.2853C7.02573 15.0542 7.41425 14.9327 7.81133 14.9386C8.2084 14.9445 8.59314 15.0775 8.90913 15.318L20.6771 24.256L30.6951 14.386C30.8655 14.2147 31.0681 14.0788 31.2912 13.9861C31.5143 13.8934 31.7535 13.8456 31.9951 13.8456C32.2367 13.8456 32.4759 13.8934 32.699 13.9861C32.9221 14.0788 33.1247 14.2147 33.2951 14.386L43.3131 24.256L55.0811 15.318C55.2735 15.1697 55.4938 15.062 55.7289 15.0011C55.964 14.9403 56.209 14.9277 56.4491 14.964Z" fill="#FFC02E"></path></svg>