<svg xmlns="http://www.w3.org/2000/svg" viewBox="0 0 24 24" width="18" height="18" fill="currentColor" role="none">
	<path fill-rule="evenodd"
		d="M12 18a1 1 0 110 2H5.7C3.663 20 2 18.383 2 16.375v-8.75C2 5.617 3.663 4 5.7 4h12.6C20.337 4 22 5.617 22 7.625v4.813a1 1 0 11-2 0V7.625C20 6.734 19.245 6 18.3 6H5.7C4.755 6 4 6.734 4 7.625v8.75C4 17.266 4.755 18 5.7 18H12zm5-2v-1.5a1 1 0 012 0V16h1.5a1 1 0 010 2H19v1.5a1 1 0 01-2 0V18h-1.5a1 1 0 010-2H17zm-7.973-4L6.906 9.879A1 1 0 018.32 8.464l2.475 2.475a1.5 1.5 0 010 2.122L8.32 15.536a1 1 0 11-1.414-1.415L9.027 12z"
		clip-rule="evenodd" role="none"></path>
</svg>