<svg width="108" height="108" viewBox="0 0 108 108" fill="none" xmlns="http://www.w3.org/2000/svg">
	<path
		d="M63 85C67.9706 89.9706 67.9706 98.0294 63 103C58.0294 107.971 49.9706 107.971 45 103C40.0294 98.0294 40.0294 89.9706 45 85C49.9706 80.0294 58.0294 80.0294 63 85Z"
		fill="#FF7633" stroke="#FF7633" />
	<path
		d="M103 45C107.971 49.9706 107.971 58.0294 103 63C98.0294 67.9706 89.9706 67.9706 85 63C80.0294 58.0294 80.0294 49.9706 85 45C89.9706 40.0294 98.0294 40.0294 103 45Z"
		fill="#FF3350" stroke="#FF3350" />
	<path
		d="M5 45L45 5C49.9706 0.029439 58.0294 0.0294356 63 5C67.9706 9.97056 67.9706 18.0294 63 23L23 63C18.0294 67.9706 9.97056 67.9706 5 63C0.0294356 58.0294 0.0294356 49.9706 5 45Z"
		fill="#33ABFF" stroke="#33ABFF" />
	<path
		d="M43 83L63 63C67.9706 58.0294 67.9706 49.9706 63 45C58.0294 40.0294 49.9706 40.0294 45 45L25 65C20.0294 69.9706 20.0294 78.0294 25 83C29.9706 87.9706 38.0294 87.9706 43 83Z"
		fill="#FFBC33" stroke="#FFBC33" />
</svg>